<svg xmlns="http://www.w3.org/2000/svg" viewBox="0 0 14.84 10.6">
  <defs>
    <clipPath id="buildingClip">
      <path d="M0,10.6 L0,1.15 Q0,0.95 0.25,0.82 L3.95,0.35 Q4.2,0.2 4.45,0.2 L10.39,0.2 Q10.64,0.2 10.89,0.35 L14.59,0.82 Q14.84,0.95 14.84,1.15 L14.84,10.6 Z"/>
    </clipPath>
  </defs>

  <!-- fallback base fill in case of any clip edge gaps -->
  <path d="M0,10.6 L0,1.15 Q0,0.95 0.25,0.82 L3.95,0.35 Q4.2,0.2 4.45,0.2 L10.39,0.2 Q10.64,0.2 10.89,0.35 L14.59,0.82 Q14.84,0.95 14.84,1.15 L14.84,10.6 Z" fill="#839AB2"/>

  <g clip-path="url(#buildingClip)">
    <!-- roof band -->
    <rect x="0" y="0" width="5.9" height="0.95" fill="#F0DFC0"/>
    <rect x="5.9" y="0" width="0.6" height="0.95" fill="#B7C1CC"/>
    <rect x="6.5" y="0" width="8.34" height="0.95" fill="#7C93AA"/>

    <!-- floor 3 (top floor) -->
    <rect x="0" y="0.95" width="5.9" height="3.02" fill="#FDF6E9"/>
    <rect x="5.9" y="0.95" width="0.6" height="3.02" fill="#D0D8E0"/>
    <rect x="6.5" y="0.95" width="8.34" height="3.02" fill="#9DB2C6"/>

    <!-- floor 2 (middle floor) -->
    <rect x="0" y="3.97" width="5.9" height="3.31" fill="#F7EEDD"/>
    <rect x="5.9" y="3.97" width="0.6" height="3.31" fill="#C6CFD8"/>
    <rect x="6.5" y="3.97" width="8.34" height="3.31" fill="#8CA2B9"/>

    <!-- floor 1 (ground floor) -->
    <rect x="0" y="7.28" width="5.9" height="3.32" fill="#FBF3E4"/>
    <rect x="5.9" y="7.28" width="0.6" height="3.32" fill="#BFC9D4"/>
    <rect x="6.5" y="7.28" width="8.34" height="3.32" fill="#839AB2"/>

    <!-- rim light along left edge -->
    <rect x="0" y="0" width="0.22" height="10.6" fill="#FFE2B0" opacity="0.9"/>

    <!-- entry door -->
    <rect x="6.7" y="8.9" width="1.4" height="1.7" rx="0.15" fill="#5B6B7C"/>

    <!-- windows: denser near base, thinning toward top, irregular placement -->
    <rect x="0.9" y="8.3" width="1.3" height="1.6" rx="0.15" fill="#FFD98A" opacity="0.9"/>
    <rect x="2.7" y="8.7" width="1.1" height="1.3" rx="0.15" fill="#FFD98A" opacity="0.7"/>
    <rect x="4.6" y="9.0" width="0.9" height="1.0" rx="0.12" fill="#FFD98A" opacity="0.55"/>
    <rect x="9.3" y="8.2" width="1.3" height="1.7" rx="0.15" fill="#FFD98A" opacity="0.85"/>
    <rect x="11.3" y="8.5" width="1.2" height="1.3" rx="0.14" fill="#FFD98A" opacity="0.6"/>
    <rect x="13.0" y="8.8" width="1.0" height="1.1" rx="0.12" fill="#FFD98A" opacity="0.5"/>

    <rect x="1.1" y="4.6" width="1.2" height="1.5" rx="0.14" fill="#FFD98A" opacity="0.85"/>
    <rect x="3.0" y="5.0" width="1.0" height="1.2" rx="0.12" fill="#FFD98A" opacity="0.6"/>
    <rect x="9.0" y="4.5" width="1.2" height="1.6" rx="0.14" fill="#FFD98A" opacity="0.75"/>
    <rect x="11.4" y="4.9" width="1.1" height="1.3" rx="0.13" fill="#FFD98A" opacity="0.55"/>
    <rect x="13.1" y="5.1" width="0.9" height="1.0" rx="0.1" fill="#FFD98A" opacity="0.5"/>

    <rect x="1.3" y="1.6" width="1.0" height="1.2" rx="0.12" fill="#FFD98A" opacity="0.7"/>
    <rect x="9.3" y="1.7" width="1.0" height="1.2" rx="0.12" fill="#FFD98A" opacity="0.55"/>
    <rect x="5.0" y="2.0" width="0.8" height="0.9" rx="0.1" fill="#FFD98A" opacity="0.45"/>
  </g>
</svg>
